<svg id="iconmonstr-bell-1" xmlns="http://www.w3.org/2000/svg" viewBox="0 0 20 24">
  <defs>
    <style>
      .cls-1 {
        fill: #d5e2ea;
      }
    </style>
  </defs>
  <path id="Shape" class="cls-1" d="M10.029,24a3.051,3.051,0,0,1-2.106-.9A2.988,2.988,0,0,1,7,21h6A3.064,3.064,0,0,1,10.029,24ZM20,19H0V17.251c2.5-.814,3.006-3.541,3.547-6.428v-.006C4.057,8.09,4.584,5.269,6.862,3.945A2.1,2.1,0,0,0,7.9,2.125,2.113,2.113,0,0,1,10,0a2.065,2.065,0,0,1,1.482.622,2.12,2.12,0,0,1,.614,1.5,2.105,2.105,0,0,0,1.041,1.822c2.279,1.324,2.805,4.145,3.315,6.872v.006c.54,2.887,1.051,5.615,3.547,6.429V19ZM10,1a1,1,0,1,0,1,1A1,1,0,0,0,10,1Z"/>
</svg>
